<?xml version="1.0" encoding="UTF-8" standalone="no"?>
<!DOCTYPE svg PUBLIC "-//W3C//DTD SVG 1.1//EN" "http://www.w3.org/Graphics/SVG/1.1/DTD/svg11.dtd">
<svg version="1.1" xmlns="http://www.w3.org/2000/svg" xmlns:xlink="http://www.w3.org/1999/xlink" preserveAspectRatio="xMidYMid meet" viewBox="0 0 1000 1000" width="1000" height="1000"><defs><path d="M642.5 600L642.5 1000L357.5 1000L357.5 1000L357.5 1000L357.5 1000L357.5 600L357.5 600L357.5 1000L357.5 1000L357.5 1000L357.5 1000L25 600L357.5 600L357.5 600L642.5 600L642.5 600L642.5 600ZM642.5 1000L642.5 1000L642.5 1000L642.5 600L975 600L642.5 1000L642.5 1000ZM25 300L500 0L500 300L975 0L975 600L25 600L25 300Z" id="f6SZWuHoAA"></path><path d="M429.28 651.1L358.57 1000L500 1000L641.43 1000L570.72 651.1L500 302.2L429.28 651.1Z" id="fvL2ZtM3y"></path><path d="M550.01 900L600 950L500 950L400 950L450 900L500 850L550.01 900Z" id="a4msVL9jKH"></path></defs><g><g><g><use xlink:href="#f6SZWuHoAA" opacity="1" fill="#ffae4a" fill-opacity="1"></use><g><use xlink:href="#f6SZWuHoAA" opacity="1" fill-opacity="0" stroke="#eb3745" stroke-width="0" stroke-opacity="1"></use></g></g><g><use xlink:href="#fvL2ZtM3y" opacity="1" fill="#e7e1e1" fill-opacity="1"></use></g><g><use xlink:href="#a4msVL9jKH" opacity="1" fill="#000000" fill-opacity="1"></use></g></g></g></svg>