<?xml version="1.0" standalone="no"?>
<!DOCTYPE svg PUBLIC "-//W3C//DTD SVG 20010904//EN"
 "http://www.w3.org/TR/2001/REC-SVG-20010904/DTD/svg10.dtd">
<svg version="1.0" xmlns="http://www.w3.org/2000/svg"
 width="700.000000pt" height="700.000000pt" viewBox="0 0 700.000000 700.000000"
 preserveAspectRatio="xMidYMid meet">
<metadata>
Created by potrace 1.11, written by Peter Selinger 2001-2013
</metadata>
<g transform="translate(0.000000,700.000000) scale(0.100000,-0.100000)"
fill="#000000" stroke="none">
<path d="M3460 6976 c-29 -20 -168 -108 -585 -371 -33 -20 -78 -49 -100 -63
-98 -63 -27 -18 -977 -618 -296 -186 -556 -350 -578 -364 -35 -22 -134 -85
-601 -380 -66 -41 -176 -111 -245 -155 -70 -44 -142 -88 -160 -98 -19 -11 -35
-24 -35 -30 -1 -7 -2 -481 -3 -1054 l-1 -1043 44 -52 c24 -29 56 -68 72 -87
16 -19 44 -53 62 -74 30 -38 206 -249 288 -347 20 -25 65 -79 99 -120 34 -41
72 -86 84 -100 11 -14 39 -47 61 -75 22 -27 45 -56 52 -63 7 -7 29 -34 50 -60
21 -26 40 -49 43 -52 3 -3 41 -48 84 -100 43 -52 88 -106 100 -120 12 -14 131
-158 266 -320 134 -162 247 -297 250 -300 3 -3 24 -27 45 -55 22 -27 42 -52
45 -55 3 -3 39 -45 80 -95 41 -49 77 -92 80 -95 3 -3 34 -41 70 -85 35 -44 74
-91 87 -105 12 -14 79 -95 149 -180 71 -85 131 -157 134 -160 3 -3 22 -26 43
-52 l38 -48 999 0 999 0 38 47 c21 27 40 50 43 53 3 3 37 43 75 90 82 100 106
129 120 144 6 6 42 49 80 96 39 47 80 96 92 110 12 14 126 151 253 305 128
154 242 291 254 305 11 14 41 50 66 80 25 30 49 60 55 66 5 6 26 30 45 54 19
24 40 48 45 54 6 6 53 63 105 126 52 63 102 124 112 135 9 11 65 79 125 150
98 119 375 452 415 500 9 11 54 65 99 120 46 55 91 109 100 120 10 11 34 41
55 66 77 90 119 143 134 163 13 18 15 275 15 2118 0 2093 0 2096 -20 2085 -11
-5 -56 -34 -100 -62 -73 -47 -148 -95 -498 -316 -64 -41 -128 -81 -142 -89
-24 -14 -241 -152 -610 -385 -93 -59 -242 -153 -330 -208 -88 -55 -193 -122
-233 -149 -41 -26 -75 -48 -77 -48 -2 0 -23 -13 -47 -28 -49 -33 -675 -429
-716 -453 -15 -9 -144 -90 -287 -181 l-260 -164 -5 1048 -5 1048 -35 -24z"/>
</g>
</svg>
